<svg width="17" height="10" viewBox="0 0 17 10" fill="none" xmlns="http://www.w3.org/2000/svg">
<path fill-rule="evenodd" clip-rule="evenodd" d="M11.6697 0.46967C11.9626 0.176777 12.4374 0.176777 12.7303 0.46967L16.7303 4.46966C16.7669 4.50627 16.799 4.54573 16.8264 4.58732C17.0186 4.87843 16.9866 5.27404 16.7303 5.53032L12.7303 9.53033C12.4374 9.82322 11.9626 9.82322 11.6697 9.53033C11.3768 9.23744 11.3768 8.76256 11.6697 8.46967L14.3893 5.75H1C0.585786 5.75 0.25 5.41421 0.25 5C0.25 4.58579 0.585786 4.25 1 4.25H14.3893L11.6697 1.53033C11.3768 1.23744 11.3768 0.762563 11.6697 0.46967Z" fill="#61BFAD"/>
</svg>
