<svg width="40" height="40" viewBox="0 0 40 40" fill="none" xmlns="http://www.w3.org/2000/svg">
<rect width="40" height="40" rx="7" fill="white"/>
<path fill-rule="evenodd" clip-rule="evenodd" d="M14 17C15.6569 17 17 15.6569 17 14C17 12.3431 15.6569 11 14 11C12.3431 11 11 12.3431 11 14C11 15.6569 12.3431 17 14 17ZM26 17C27.6569 17 29 15.6569 29 14C29 12.3431 27.6569 11 26 11C24.3431 11 23 12.3431 23 14C23 15.6569 24.3431 17 26 17ZM17 26C17 27.6569 15.6569 29 14 29C12.3431 29 11 27.6569 11 26C11 24.3431 12.3431 23 14 23C15.6569 23 17 24.3431 17 26ZM26 29C27.6569 29 29 27.6569 29 26C29 24.3431 27.6569 23 26 23C24.3431 23 23 24.3431 23 26C23 27.6569 24.3431 29 26 29Z" fill="#2C2D3D"/>
</svg>
