<svg width="38" height="38" viewBox="0 0 38 38" fill="none" xmlns="http://www.w3.org/2000/svg">
<circle cx="19" cy="19" r="19" fill="#1B1B1B" fill-opacity="0.1"/>
<path fill-rule="evenodd" clip-rule="evenodd" d="M22.0919 14.8019C22.4824 14.4114 23.1156 14.4114 23.5061 14.8019L27.7278 19.0236C27.728 19.0238 27.7282 19.024 27.7284 19.0241C28.1189 19.4147 28.1189 20.0478 27.7284 20.4384C27.7282 20.4386 27.728 20.4388 27.7278 20.4389L23.5061 24.6606C23.1156 25.0511 22.4824 25.0511 22.0919 24.6606C21.7014 24.2701 21.7014 23.6369 22.0919 23.2464L24.607 20.7313H10.9768C10.4245 20.7313 9.97681 20.2835 9.97681 19.7313C9.97681 19.179 10.4245 18.7313 10.9768 18.7313H24.607L22.0919 16.2161C21.7014 15.8256 21.7014 15.1925 22.0919 14.8019Z" fill="white"/>
</svg>
