<svg width="38" height="38" viewBox="0 0 38 38" fill="none" xmlns="http://www.w3.org/2000/svg">
<circle cx="19" cy="19" r="19" fill="#61BFAD"/>
<path fill-rule="evenodd" clip-rule="evenodd" d="M22.0919 14.8019C22.4824 14.4113 23.1156 14.4113 23.5061 14.8019L27.7278 19.0235C27.728 19.0237 27.7282 19.0239 27.7284 19.0241C28.1189 19.4146 28.1189 20.0478 27.7284 20.4383C27.7282 20.4385 27.728 20.4387 27.7278 20.4389L23.5061 24.6605C23.1156 25.051 22.4824 25.051 22.0919 24.6605C21.7014 24.27 21.7014 23.6368 22.0919 23.2463L24.607 20.7312H10.9768C10.4245 20.7312 9.97681 20.2835 9.97681 19.7312C9.97681 19.1789 10.4245 18.7312 10.9768 18.7312H24.607L22.0919 16.2161C21.7014 15.8256 21.7014 15.1924 22.0919 14.8019Z" fill="white"/>
</svg>
